<mxfile host="app.diagrams.net" modified="2024-04-20T11:30:55.127Z" agent="Mozilla/5.0 (Windows NT 10.0; Win64; x64) AppleWebKit/537.36 (KHTML, like Gecko) Chrome/123.0.0.0 Safari/537.36" etag="7YB6FlTME8FzaGiyiSUp" version="24.2.5" type="github">
  <diagram name="Page-1" id="AU4YA21rK9TPEQC-tNbz">
    <mxGraphModel dx="1434" dy="772" grid="1" gridSize="10" guides="1" tooltips="1" connect="1" arrows="1" fold="1" page="1" pageScale="1" pageWidth="1169" pageHeight="827" math="0" shadow="0">
      <root>
        <mxCell id="0" />
        <mxCell id="1" parent="0" />
        <mxCell id="198M2ZX4o6Lz2Dxf9rTe-6" value="AWS Cloud - Ingest" style="points=[[0,0],[0.25,0],[0.5,0],[0.75,0],[1,0],[1,0.25],[1,0.5],[1,0.75],[1,1],[0.75,1],[0.5,1],[0.25,1],[0,1],[0,0.75],[0,0.5],[0,0.25]];outlineConnect=0;gradientColor=none;html=1;whiteSpace=wrap;fontSize=12;fontStyle=0;container=1;pointerEvents=0;collapsible=0;recursiveResize=0;shape=mxgraph.aws4.group;grIcon=mxgraph.aws4.group_aws_cloud_alt;strokeColor=#232F3E;fillColor=none;verticalAlign=top;align=left;spacingLeft=30;fontColor=#232F3E;dashed=0;" vertex="1" parent="1">
          <mxGeometry x="40" y="80" width="680" height="620" as="geometry" />
        </mxCell>
        <mxCell id="198M2ZX4o6Lz2Dxf9rTe-7" value="eu-west-1" style="points=[[0,0],[0.25,0],[0.5,0],[0.75,0],[1,0],[1,0.25],[1,0.5],[1,0.75],[1,1],[0.75,1],[0.5,1],[0.25,1],[0,1],[0,0.75],[0,0.5],[0,0.25]];outlineConnect=0;gradientColor=none;html=1;whiteSpace=wrap;fontSize=12;fontStyle=0;container=1;pointerEvents=0;collapsible=0;recursiveResize=0;shape=mxgraph.aws4.group;grIcon=mxgraph.aws4.group_region;strokeColor=#00A4A6;fillColor=none;verticalAlign=top;align=left;spacingLeft=30;fontColor=#147EBA;dashed=1;" vertex="1" parent="198M2ZX4o6Lz2Dxf9rTe-6">
          <mxGeometry x="40" y="40" width="630" height="570" as="geometry" />
        </mxCell>
        <mxCell id="198M2ZX4o6Lz2Dxf9rTe-8" value="eu-west-1a" style="fillColor=none;strokeColor=#147EBA;dashed=1;verticalAlign=top;fontStyle=0;fontColor=#147EBA;whiteSpace=wrap;html=1;" vertex="1" parent="198M2ZX4o6Lz2Dxf9rTe-7">
          <mxGeometry x="270" y="15" width="100" height="540" as="geometry" />
        </mxCell>
        <mxCell id="198M2ZX4o6Lz2Dxf9rTe-9" value="eu-west-1b" style="fillColor=none;strokeColor=#147EBA;dashed=1;verticalAlign=top;fontStyle=0;fontColor=#147EBA;whiteSpace=wrap;html=1;" vertex="1" parent="198M2ZX4o6Lz2Dxf9rTe-7">
          <mxGeometry x="384" y="15" width="100" height="540" as="geometry" />
        </mxCell>
        <mxCell id="198M2ZX4o6Lz2Dxf9rTe-10" value="eu-west-1c" style="fillColor=none;strokeColor=#147EBA;dashed=1;verticalAlign=top;fontStyle=0;fontColor=#147EBA;whiteSpace=wrap;html=1;" vertex="1" parent="198M2ZX4o6Lz2Dxf9rTe-7">
          <mxGeometry x="502" y="15" width="100" height="540" as="geometry" />
        </mxCell>
      </root>
    </mxGraphModel>
  </diagram>
</mxfile>
